<?xml version="1.0" standalone="no"?>
<!DOCTYPE svg PUBLIC "-//W3C//DTD SVG 20010904//EN"
 "http://www.w3.org/TR/2001/REC-SVG-20010904/DTD/svg10.dtd">
<svg version="1.0" xmlns="http://www.w3.org/2000/svg"
 width="176.000000pt" height="117.000000pt" viewBox="0 0 176.000000 117.000000"
 preserveAspectRatio="xMidYMid meet">

<g transform="translate(0.000000,117.000000) scale(0.100000,-0.100000)"
fill="#000000" stroke="none">
<path d="M570 688 c-24 -13 -25 -18 -25 -103 0 -85 1 -90 25 -103 17 -8 57
-12 123 -10 121 4 127 9 127 113 0 104 -6 109 -127 113 -66 2 -106 -2 -123
-10z m174 -44 c12 -5 16 -20 16 -59 0 -61 -6 -65 -80 -65 -75 0 -80 4 -80 65
0 33 5 55 13 58 18 8 113 8 131 1z"/>
<path d="M210 585 l0 -105 30 0 30 0 0 82 0 81 63 -81 62 -81 58 -1 57 0 0
105 0 105 -30 0 -29 0 -3 -81 -3 -82 -64 82 -64 81 -53 0 -54 0 0 -105z"/>
<path d="M850 585 l0 -105 30 0 30 0 0 105 0 105 -30 0 -30 0 0 -105z"/>
<path d="M974 639 l-51 -51 57 -54 c51 -49 61 -54 101 -54 l44 0 -65 59 c-52
47 -61 59 -49 67 9 5 35 26 59 47 l44 37 -45 0 c-40 0 -49 -5 -95 -51z"/>
<path d="M1150 585 l0 -105 35 0 35 0 0 105 0 105 -35 0 -35 0 0 -105z"/>
<path d="M1296 589 c-31 -56 -56 -104 -56 -105 0 -2 15 -4 34 -4 21 0 36 6 40
15 8 22 141 21 154 -1 6 -11 20 -14 45 -12 l36 3 -56 103 -56 102 -43 0 -43 0
-55 -101z m134 -21 c0 -5 -18 -8 -40 -8 l-40 0 21 42 21 42 19 -35 c10 -18 18
-37 19 -41z"/>
</g>
</svg>
